{"title":"CSI New York [6x07] HDTV - AC3 - Spanish","uid":5572839,"size":446586880,"categoryP":"video","categoryS":"tv_shows","magnet":"?xt=urn:btih:2e0a3ad937c3c40e34bb6fc43e06ddace94a4a00&amp;dn=CSI+New+York+%5B6x07%5D+HDTV+-+AC3+-+Spanish&amp;tr=udp%3A%2F%2Ftracker.openbittorrent.com%3A80&amp;tr=udp%3A%2F%2Fopen.demonii.com%3A1337&amp;tr=udp%3A%2F%2Ftracker.coppersurfer.tk%3A6969&amp;tr=udp%3A%2F%2Fexodus.desync.com%3A6969","seeders":0,"leechers":0,"uploader":"fleqii","files":1,"time":1274299665,"description":"I:TorrentsCSI New York [6x07] HDTV - AC3 - Spanish.avi\n   General\n      Complete name : I:TorrentsCSI New York [6x07] HDTV - AC3 - Spanish.avi\n      Format : AVI\n      Format/Info : Audio Video Interleave\n      File size : 426 MiB\n      Duration : 39mn 1s\n      Overall bit rate : 1 526 Kbps\n      Writing application : VirtualDubMod 1.5.10.2 (build 2540/release)\n      Writing library : VirtualDubMod build 2540/release\n   Video #0\n      ID : 0\n      Format : MPEG-4 Visual\n      Format profile : AdvancedSimple@L5\n      Format settings, BVOP : Yes\n      Format settings, QPel : No\n      Format settings, GMC : No warppoints\n      Format settings, Matrix : Default (H.263)\n      Codec ID : XVID\n      Codec ID/Hint : XviD\n      Duration : 39mn 1s\n      Bit rate : 1 068 Kbps\n      Width : 624 pixels\n      Height : 352 pixels\n      Display aspect ratio : 16:9\n      Frame rate : 25.000 fps\n      Original frame rate : 23.976 fps\n      Resolution : 24 bits\n      Colorimetry : 4:2:0\n      Scan type : Progressive\n      Bits/(Pixel*Frame) : 0.195\n      Stream size : 298 MiB (70%)\n      Writing library : XviD 1.2.1 (UTC 2008-12-04)\n   Audio #1\n      ID : 1\n      Format : AC-3\n      Format/Info : Audio Coding 3\n      Codec ID : 2000\n      Duration : 39mn 1s\n      Bit rate mode : Constant\n      Bit rate : 448 Kbps\n      Channel(s) : 2 channels\n      Channel positions : L R\n      Sampling rate : 48.0 KHz\n      Stream size : 125 MiB (29%)\n      Alignment : Split accross interleaves\n      Interleave, duration : 40 ms (1.00 video frame)\n      Interleave, preload duration : 500 ms","torrent":{"xt":"urn:btih:2e0a3ad937c3c40e34bb6fc43e06ddace94a4a00","amp;dn":"CSI+New+York+%5B6x07%5D+HDTV+-+AC3+-+Spanish","amp;tr":["udp%3A%2F%2Ftracker.openbittorrent.com%3A80","udp%3A%2F%2Fopen.demonii.com%3A1337","udp%3A%2F%2Ftracker.coppersurfer.tk%3A6969","udp%3A%2F%2Fexodus.desync.com%3A6969"],"infoHash":"2e0a3ad937c3c40e34bb6fc43e06ddace94a4a00","infoHashBuffer":{"type":"Buffer","data":[46,10,58,217,55,195,196,14,52,187,111,196,62,6,221,172,233,74,74,0]},"announce":[],"urlList":[]}}